<?xml version="1.0" encoding="UTF-8"?>
<svg id="Impresión" xmlns="http://www.w3.org/2000/svg" viewBox="0 0 492.37 114.87">
  <defs>
    <style>
      .cls-1 {
        fill: #62b22f;
      }

      .cls-2 {
        fill: #fff;
      }
    </style>
  </defs>
  <path class="cls-2" d="M140.07,87.35V27.52h14.75l16.52,46.34,16.52-46.34h14.74v59.83h-10.95v-41.29l-15.09,41.2h-10.45l-15.08-41.2v41.29h-10.95Z"/>
  <path class="cls-2" d="M233.93,88.36c-4.44,0-8.33-.97-11.67-2.91s-5.93-4.68-7.75-8.21c-1.82-3.54-2.74-7.67-2.74-12.39s.92-8.92,2.74-12.43c1.82-3.51,4.41-6.23,7.75-8.17,3.34-1.94,7.23-2.9,11.67-2.9s8.31.97,11.63,2.9c3.32,1.94,5.89,4.67,7.71,8.17,1.82,3.51,2.74,7.66,2.74,12.43s-.92,8.85-2.74,12.39c-1.82,3.54-4.4,6.28-7.71,8.21-3.31,1.94-7.19,2.91-11.63,2.91ZM233.93,79.59c3.48,0,6.16-1.29,8.05-3.87,1.88-2.59,2.82-6.21,2.82-10.87s-.94-8.21-2.82-10.83-4.56-3.92-8.05-3.92-6.18,1.31-8.09,3.92c-1.91,2.61-2.87,6.22-2.87,10.83s.95,8.29,2.87,10.87c1.91,2.58,4.6,3.87,8.09,3.87Z"/>
  <path class="cls-2" d="M264.35,87.35v-45h9.77l.42,12.64-1.27-.51c.45-3.14,1.38-5.67,2.78-7.58,1.41-1.91,3.12-3.32,5.14-4.21,2.02-.9,4.24-1.35,6.66-1.35,3.31,0,6.11.73,8.38,2.19,2.28,1.46,4,3.47,5.18,6.03,1.18,2.55,1.77,5.52,1.77,8.89v28.9h-10.79v-25.45c0-2.53-.25-4.66-.75-6.4-.51-1.74-1.34-3.08-2.49-4-1.15-.93-2.68-1.39-4.59-1.39-2.87,0-5.16,1.01-6.87,3.03-1.71,2.02-2.57,4.94-2.57,8.76v25.45h-10.79Z"/>
  <path class="cls-2" d="M314.32,36.37v-9.61h11.2v9.61h-11.2ZM314.48,87.35v-45h10.79v45h-10.79Z"/>
  <path class="cls-2" d="M332.27,50.69v-8.34h29.74v8.34h-29.74ZM352.41,87.35c-4.5,0-7.8-1.04-9.9-3.12-2.11-2.08-3.16-5.34-3.16-9.77V31.82h10.79v41.63c0,2.08.45,3.52,1.34,4.34.9.81,2.3,1.22,4.22,1.22h6.32v8.34h-9.6ZM361.25,50.69v-8.34h29.74v8.34h-29.74ZM381.39,87.35c-4.5,0-7.8-1.04-9.9-3.12s-3.16-5.34-3.16-9.77V31.82h10.79v41.63c0,2.08.45,3.52,1.34,4.34.9.81,2.3,1.22,4.22,1.22h6.32v8.34h-9.6Z"/>
  <path class="cls-2" d="M34.29,69.21c-4.78-11.85-2.14-24.2,6.28-32.54s20.95-10.97,32.37-6.18l3.53-5.79c-2.67-3.65-2.32-8.18.27-11.03,2.89-3.17,7.45-3.84,11.07-1.55,3.31,2.09,4.97,6.14,3.44,10.16-1.42,3.72-5.01,6.15-9.61,5.64l-2.94,5.94c13.3,10.18,15.89,28.51,5.5,41.8l4.59,4.92c4.09-1.41,8.43-.38,10.6,3.02s2.18,7.75-.93,10.87c-2.69,2.7-6.93,3.71-10.59,1.41-3.33-2.1-5.22-6.31-3.45-10.87l-4.9-4.61c-13.28,10.26-31.76,7.87-41.73-5.53l-6.07,3.04c.47,4.07-1.75,7.8-5.02,9.3-4.16,1.9-8.41.33-10.73-3.11-2.34-3.48-1.8-8.13,1.26-10.95,3.06-2.82,7.49-3.39,11.18-.36l5.88-3.57ZM66.03,65.97l.32,10.35c10.3-2.88,15.71-12.56,14.19-22.04s-9.67-16.48-19.3-16.48c-9.51,0-17.98,7.2-19.33,16.29-1.48,9.96,3.9,19.37,14.31,22.26l.17-10.48c-5.62-3.49-6.41-10.38-2.57-14.79,4.1-4.71,10.92-4.46,14.68-.09,4.03,4.67,3.07,11.38-2.47,14.97Z"/>
  <path class="cls-2" d="M22.26,61.95c-3.69.22-6.01,1.16-9.32,2.93-2.6-15.49,2.88-30.95,13.5-41.72,10.92-11.07,26.46-16.53,42.43-14.02-1.77,2.96-2.82,5.65-3.43,9.32-12.26-1.15-23.66,3.04-32.14,11.51-8.36,8.36-12.3,20.16-11.04,31.97Z"/>
  <path class="cls-2" d="M97.84,71.69c4.47-12.8,3-26.58-5.05-37.4,2.63-2.12,4.42-4.22,6.52-7.36,11.37,13.91,14.06,33.84,6.64,49.95-2.81-2.27-4.75-3.49-8.11-5.18Z"/>
  <path class="cls-2" d="M37.96,88.91c10.83,8.06,25.01,9.79,37.64,4.96,1.22,3.36,2.66,5.83,5.49,8.23-16.47,7.27-35.64,5.18-50.45-6.55,2.64-1.62,4.98-3.35,7.32-6.65Z"/>
  <circle class="cls-1" cx="61.24" cy="56.83" r="10.3"/>
  <g>
    <path class="cls-2" d="M399.82,86.35v-10.5h10.75v10.5h-10.75Z"/>
    <path class="cls-2" d="M420.16,35.6v-8.83h9.17v8.83h-9.17ZM420.32,86.35v-44.33h8.83v44.33h-8.83Z"/>
    <path class="cls-2" d="M459.07,87.35c-4.22,0-7.91-.95-11.08-2.83-3.17-1.89-5.61-4.58-7.33-8.08-1.72-3.5-2.58-7.58-2.58-12.25s.86-8.81,2.58-12.25c1.72-3.45,4.17-6.12,7.33-8.04,3.17-1.92,6.86-2.88,11.08-2.88s7.92.96,11.08,2.88c3.17,1.92,5.61,4.59,7.33,8.04,1.72,3.45,2.58,7.53,2.58,12.25s-.86,8.75-2.58,12.25c-1.72,3.5-4.17,6.2-7.33,8.08-3.17,1.89-6.86,2.83-11.08,2.83ZM459.07,79.68c3.78,0,6.69-1.38,8.75-4.13,2.05-2.75,3.08-6.54,3.08-11.37s-1.03-8.63-3.08-11.38c-2.06-2.75-4.97-4.12-8.75-4.12s-6.62,1.37-8.71,4.12c-2.08,2.75-3.12,6.54-3.12,11.38s1.04,8.62,3.12,11.37c2.09,2.75,4.98,4.13,8.71,4.13Z"/>
  </g>
</svg>